<svg viewBox="0 0 504 504" xmlns="http://www.w3.org/2000/svg" xmlnsXlink="http://www.w3.org/1999/xlink" xmlSpace="preserve">
  <path d="M356 360h-72v-3.696a142 142 0 0 0 44.608-18.448l13.896 13.904 45.256-45.256-13.904-13.896c8.664-13.752 14.848-28.704 18.448-44.608H412v-48h32v-16h-16c0-83.168-58.352-154.712-139.288-171.904C284.56 4.904 276.88 0 268 0h-32c-8.88 0-16.56 4.904-20.712 12.096C134.352 29.288 76 100.832 76 184H60v16h32v48h19.696a142 142 0 0 0 18.448 44.608l-13.904 13.896 45.256 45.256 13.896-13.904c13.752 8.664 28.704 14.848 44.608 18.448V360h-72c-1.504 0-2.968.184-4.464.224l-44.984-44.992c.96-3.792 1.448-7.56 1.448-11.232 0-31.744-31.192-56.88-64.208-45.032l-11.856 4.272L48.688 288 36 300.688l-24.76-24.76-4.272 11.856C5 293.272 4 298.728 4 304c0 26.472 21.528 48 48 48 3.672 0 7.44-.488 11.232-1.448l23.384 23.376C37.872 397.032 4 446.576 4 504h16c0-36.168 15.144-68.816 39.352-92.12C80.384 437.904 92 470.504 92 504h16c0-5.36-.336-10.696-.864-16H244v16h16v-16h136.864c-.528 5.304-.864 10.64-.864 16h16c0-33.496 11.616-66.096 32.648-92.12C468.856 435.184 484 467.832 484 504h16c0-79.4-64.6-144-144-144M92 184c0-73.312 49.888-136.696 120-154.728V120h16V24c0-4.416 3.584-8 8-8h32c4.416 0 8 3.584 8 8v96h16V29.272C362.112 47.304 412 110.688 412 184h-13.768l-8 24H113.768l-8-24zm231.528 40C319.536 259.944 289 288 252 288s-67.536-28.056-71.528-64zm-144.6 97.016-5.496-3.832-11.944 11.952-22.632-22.632 11.952-11.944-3.832-5.496c-10.576-15.184-17.6-32.168-20.864-50.48L124.944 232H108v-8h56.408c4.056 44.784 41.768 80 87.592 80s83.536-35.216 87.592-80H396v8h-16.944l-1.168 6.592c-3.264 18.304-10.288 35.288-20.864 50.48l-3.832 5.496 11.952 11.944-22.632 22.632-11.944-11.952-5.496 3.832c-15.184 10.576-32.168 17.6-50.48 20.864L268 343.056V360h-32v-16.944l-6.592-1.176c-18.304-3.264-35.288-10.288-50.48-20.864m-111.36 11.24-4.784 1.712C59 335.336 55.472 336 52 336c-16.464 0-30.064-12.496-31.816-28.496L36 323.312 71.312 288l-15.808-15.816C71.504 273.936 84 287.536 84 304c0 3.472-.664 7-2.032 10.792l-1.712 4.784 42.752 42.752c-6.944 1.224-13.72 2.904-20.288 5.088zM244 472H104.688c-5.168-25.68-16.448-49.92-33.096-70.448C92.944 385.584 119.344 376 148 376h28l68 90.672zm8-21.336L196 376h112zM399.312 472H260v-5.328L328 376h28c28.656 0 55.056 9.584 76.408 25.552-16.648 20.528-27.92 44.768-33.096 70.448"/>
  <path d="M124 168h256v16H124z"/>
</svg>
