<svg version="1.0" xmlns="http://www.w3.org/2000/svg"
 width="810.000000pt" height="810.000000pt" viewBox="0 0 810.000000 810.000000"
 preserveAspectRatio="xMidYMid meet">

<g transform="translate(0.000000,810.000000) scale(0.100000,-0.100000)"
fill="#000000" stroke="none">
<path d="M3572 6880 c5 -46 3 -50 -16 -50 -12 0 -26 4 -31 9 -6 5 -20 12 -31
15 -17 5 -24 0 -34 -25 -12 -28 -12 -33 6 -46 10 -8 31 -17 47 -20 36 -7 34
-23 -8 -51 -39 -25 -43 -41 -17 -65 25 -22 32 -21 64 8 15 14 31 25 36 25 5 0
15 -20 21 -45 11 -43 13 -45 48 -45 l36 0 -7 55 -6 55 52 -20 c28 -11 52 -19
53 -17 31 66 26 82 -31 93 -19 3 -34 10 -34 14 0 4 16 22 35 39 41 36 42 41
12 69 l-24 22 -38 -30 c-21 -16 -41 -30 -45 -30 -4 0 -11 20 -14 45 -7 44 -8
45 -43 45 l-36 0 5 -50z"/>
<path d="M4222 6889 c-11 -41 -18 -87 -43 -268 -5 -41 -12 -77 -14 -81 -9 -15
25 -134 49 -168 42 -62 154 -112 248 -112 116 0 220 75 251 180 16 54 56 285
65 366 4 47 -6 54 -88 54 l-46 0 -13 -92 c-8 -51 -17 -118 -22 -148 -20 -142
-33 -177 -83 -215 -58 -44 -158 -25 -196 38 -24 39 -25 86 -4 222 26 175 35
247 30 252 -2 3 -31 7 -64 10 l-59 5 -11 -43z"/>
<path d="M4972 6743 c-6 -16 -27 -73 -47 -128 -20 -55 -43 -116 -50 -135 -7
-19 -25 -69 -40 -110 -14 -41 -30 -83 -35 -92 -5 -9 -12 -34 -16 -55 -5 -37
-4 -38 33 -51 78 -28 82 -26 115 63 17 44 36 94 43 110 7 17 25 66 40 110 26
79 40 115 55 145 4 9 11 30 14 48 4 17 12 34 17 37 5 4 9 15 9 25 0 13 -15 24
-55 39 -70 26 -71 26 -83 -6z"/>
<path d="M5454 6611 c-38 -36 -180 -172 -316 -301 -137 -129 -248 -239 -248
-245 0 -6 20 -21 45 -33 l45 -22 143 133 c78 72 196 184 262 248 66 64 146
140 178 169 31 30 57 57 57 60 0 4 -22 18 -48 32 l-49 25 -69 -66z"/>
<path d="M3062 6595 c-22 -20 -44 -44 -47 -55 -8 -26 -22 -26 -30 0 -8 24 -20
25 -59 5 -15 -8 -34 -15 -42 -15 -31 0 -28 -15 32 -148 13 -29 24 -57 24 -61
0 -5 16 -43 35 -84 19 -42 37 -86 40 -99 4 -13 13 -32 20 -42 12 -16 18 -18
37 -8 13 6 35 16 51 22 39 14 42 30 13 91 -14 29 -26 56 -26 61 0 4 -11 31
-25 60 -14 28 -25 66 -25 84 0 37 39 90 77 105 13 5 23 17 23 28 0 30 -29 91
-43 91 -8 0 -32 -16 -55 -35z"/>
<path d="M5535 6305 c-156 -195 -165 -211 -165 -306 0 -68 3 -80 31 -122 68
-103 159 -157 265 -157 101 0 151 34 266 180 50 63 109 135 131 158 21 24 35
47 31 51 -36 30 -93 71 -101 71 -10 0 -9 2 -151 -173 -151 -183 -198 -203
-292 -119 -35 31 -43 45 -47 82 -6 60 9 86 137 243 58 71 110 135 115 143 8
12 0 24 -35 55 -25 21 -50 39 -57 39 -6 0 -64 -65 -128 -145z"/>
<path d="M2610 6373 c-171 -58 -245 -212 -173 -360 29 -58 65 -92 126 -118
111 -46 281 24 344 142 32 60 27 72 -33 80 -37 5 -41 2 -64 -33 -36 -55 -84
-84 -137 -84 -45 0 -83 14 -83 30 0 5 65 52 145 104 80 53 145 102 145 109 0
26 -65 90 -114 113 -48 22 -118 30 -156 17z m103 -119 l31 -17 -29 -23 c-47
-38 -177 -116 -182 -110 -3 3 -6 23 -6 44 0 95 99 151 186 106z"/>
<path d="M2170 6023 c-47 -10 -117 -71 -144 -125 -14 -29 -26 -61 -26 -72 0
-18 -1 -18 -18 -3 -17 16 -21 14 -63 -29 l-44 -45 75 -72 c41 -39 147 -140
234 -225 l159 -153 43 42 c24 24 44 48 44 55 0 6 -28 37 -62 69 -85 78 -87 82
-38 96 46 14 110 71 136 121 25 48 23 152 -3 204 -21 40 -82 102 -122 124 -24
12 -134 21 -171 13z m120 -143 c64 -45 88 -129 53 -180 -31 -45 -56 -59 -102
-60 -84 0 -145 60 -145 143 0 40 5 52 34 82 30 31 40 35 83 35 33 0 58 -7 77
-20z"/>
<path d="M6213 5953 c-2 -10 -28 -88 -57 -173 l-52 -155 -184 -3 c-101 -1
-188 -6 -191 -10 -4 -4 12 -32 35 -62 l43 -55 132 3 133 4 -7 -24 c-4 -12 -18
-54 -32 -93 -47 -137 -47 -130 -18 -178 25 -43 62 -84 68 -76 2 2 30 84 61
182 l58 177 77 0 c43 0 126 3 184 7 l106 6 -20 26 c-11 14 -30 41 -41 59 l-21
34 -124 -7 -124 -7 6 28 c9 38 34 115 46 136 21 40 10 99 -27 149 -20 27 -38
49 -41 49 -3 0 -7 -8 -10 -17z"/>
<path d="M1815 5541 c-74 -19 -134 -71 -177 -154 -32 -63 -31 -176 2 -237 67
-120 247 -158 356 -75 68 52 124 160 124 237 -1 67 -51 152 -113 192 -56 36
-136 51 -192 37z m105 -141 c95 -49 107 -152 25 -222 -29 -25 -109 -23 -152 3
-18 12 -43 39 -54 62 -19 36 -20 44 -8 79 7 22 28 52 46 69 41 35 86 38 143 9z"/>
<path d="M1294 5075 c-3 -19 -10 -38 -15 -41 -5 -3 -9 -13 -9 -22 0 -13 45
-34 183 -86 100 -38 205 -78 232 -89 137 -52 181 -67 191 -67 13 0 44 75 44
107 0 16 -8 23 -32 28 -18 4 -37 11 -43 14 -5 4 -32 16 -60 25 -27 10 -63 24
-80 31 -16 7 -68 27 -115 43 -47 17 -121 44 -165 61 -106 41 -122 41 -131 -4z"/>
<path d="M6670 5038 c-36 -11 -81 -23 -100 -27 -19 -4 -66 -17 -105 -28 -38
-12 -97 -28 -130 -37 -165 -45 -162 -44 -147 -83 6 -15 18 -55 27 -88 9 -33
23 -85 31 -115 36 -133 84 -205 171 -256 43 -25 57 -28 138 -28 77 0 98 4 147
28 60 29 114 83 145 145 26 53 22 213 -7 306 -12 39 -26 88 -31 110 -25 104
-29 106 -139 73z m54 -195 c9 -32 21 -72 26 -89 17 -51 13 -74 -23 -152 -16
-35 -70 -71 -129 -86 -94 -24 -178 19 -220 112 -18 39 -48 141 -48 162 0 7 53
25 185 61 22 6 60 17 85 25 49 14 79 21 96 23 6 0 19 -25 28 -56z"/>
<path d="M1480 4757 c-19 -6 -55 -32 -80 -57 -37 -36 -49 -58 -64 -113 -17
-61 -17 -75 -5 -124 25 -107 97 -176 195 -187 127 -14 205 25 259 128 43 84
48 220 11 269 -14 18 -16 18 -56 -3 -36 -18 -41 -25 -36 -46 3 -13 9 -35 12
-49 16 -64 -52 -175 -106 -175 -24 0 -25 21 -6 110 8 36 20 92 26 125 7 33 16
73 21 88 7 24 5 29 -17 37 -33 13 -109 11 -154 -3z m70 -135 c0 -15 -7 -54
-15 -85 -8 -32 -15 -69 -15 -83 0 -55 -63 -29 -90 36 -18 42 7 108 50 138 46
31 70 29 70 -6z"/>
<path d="M6450 4268 c-71 -43 -112 -118 -118 -215 -5 -76 19 -161 55 -195 l24
-22 35 36 36 35 -26 41 c-15 24 -26 56 -26 75 0 59 52 137 90 137 19 0 20 -8
20 -180 l0 -180 39 0 c85 0 166 46 208 118 25 41 28 57 28 132 0 75 -3 91 -27
132 -50 84 -113 118 -217 118 -58 0 -74 -5 -121 -32z m233 -126 c10 -9 25 -32
33 -52 13 -29 13 -41 3 -73 -13 -38 -59 -87 -83 -87 -14 0 -26 82 -26 183 l0
59 28 -7 c15 -3 35 -14 45 -23z"/>
<path d="M1277 4243 c-2 -5 -1 -33 2 -63 l6 -54 95 -39 c52 -22 113 -47 135
-57 22 -9 50 -21 63 -24 41 -13 26 -25 -98 -72 -25 -9 -49 -20 -55 -24 -5 -4
-38 -17 -72 -30 -35 -12 -63 -28 -64 -34 -2 -24 3 -121 6 -124 2 -2 21 4 42
13 21 9 47 21 58 25 42 18 123 54 183 81 34 16 65 29 68 29 13 0 100 44 106
54 12 18 9 111 -4 128 -7 8 -103 52 -213 97 -110 45 -208 86 -217 91 -21 12
-35 13 -41 3z"/>
<path d="M6350 3753 c-36 -62 -37 -65 -55 -148 -16 -75 -16 -84 -1 -136 31
-106 119 -149 197 -96 26 18 43 44 76 122 33 80 46 101 64 103 27 5 49 -21 49
-57 0 -32 -25 -103 -46 -136 -19 -29 -15 -37 30 -63 32 -19 35 -19 48 -4 8 9
22 35 31 57 41 101 48 186 18 250 -22 49 -44 69 -93 84 -79 26 -155 -47 -185
-175 -8 -36 -48 -78 -67 -71 -42 16 -34 115 17 202 l29 49 -34 28 c-18 15 -38
28 -45 28 -6 0 -21 -17 -33 -37z"/>
<path d="M1502 3690 c-46 -11 -98 -49 -129 -95 -23 -33 -28 -54 -31 -118 -4
-68 -1 -84 23 -132 34 -71 90 -118 159 -135 115 -27 228 25 282 130 29 57 24
180 -10 252 -15 31 -41 69 -58 84 l-32 26 -28 -34 c-31 -38 -34 -51 -14 -67
23 -20 56 -98 56 -135 0 -38 -25 -88 -52 -105 -15 -9 -20 -6 -33 25 -8 20 -15
45 -15 56 0 11 -7 50 -16 86 -46 189 -38 178 -102 162z m27 -171 c7 -21 16
-59 21 -85 5 -27 12 -62 16 -78 7 -29 7 -29 -32 -23 -58 9 -94 56 -94 121 0
43 5 55 32 83 35 36 40 35 57 -18z"/>
<path d="M6224 3301 c-9 -20 -17 -49 -17 -65 l-2 -29 215 -74 c118 -40 217
-73 220 -73 7 0 40 93 40 112 0 10 -45 30 -137 61 -76 25 -175 59 -221 75
l-83 30 -15 -37z"/>
<path d="M6022 3160 c-110 -79 -186 -261 -153 -363 14 -41 97 -121 157 -152
21 -11 64 -34 94 -51 30 -17 94 -52 142 -78 l87 -46 26 40 c29 46 31 57 10 80
-14 16 -13 19 19 34 114 54 163 232 92 335 -16 22 -49 54 -74 71 -41 27 -54
30 -122 30 -69 0 -81 -3 -117 -29 -78 -57 -130 -155 -116 -221 7 -37 -6 -38
-45 -5 -36 30 -56 76 -48 108 10 40 83 141 120 166 l36 23 -25 42 c-13 22 -28
42 -33 44 -5 1 -27 -11 -50 -28z m319 -239 c68 -41 87 -114 48 -177 -29 -48
-57 -64 -110 -64 -125 0 -163 154 -57 230 48 35 75 37 119 11z"/>
<path d="M1645 3141 c-100 -34 -170 -94 -207 -179 -16 -35 -19 -61 -16 -126 3
-79 6 -86 82 -239 43 -87 85 -161 93 -164 8 -3 85 30 171 75 87 44 206 105
266 136 60 30 110 57 112 59 2 2 -6 24 -19 48 -13 24 -43 82 -67 129 -82 161
-146 228 -248 262 -67 22 -102 22 -167 -1z m200 -156 c19 -14 42 -37 53 -52
23 -33 82 -143 82 -153 0 -6 -85 -52 -284 -152 -70 -36 -67 -38 -122 80 -36
79 -44 144 -21 185 31 56 78 95 147 121 33 12 112 -3 145 -29z"/>
<path d="M6770 3133 c-41 -38 -48 -80 -20 -116 47 -60 130 -19 130 64 0 30 -6
42 -29 58 -38 27 -45 26 -81 -6z"/>
<path d="M5845 2588 l-38 -42 101 -95 c108 -103 122 -122 122 -172 0 -38 -65
-109 -99 -109 -34 0 -56 15 -170 117 l-105 94 -45 -47 -45 -47 109 -104 c159
-150 215 -174 307 -134 70 30 118 95 137 185 6 28 7 29 25 11 18 -18 20 -18
57 23 22 23 39 46 39 51 0 5 -46 51 -102 103 -56 51 -130 119 -163 151 -34 31
-69 57 -77 57 -9 0 -33 -19 -53 -42z"/>
<path d="M2272 2405 c-147 -46 -229 -201 -176 -331 30 -72 119 -144 179 -144
14 0 25 -4 25 -9 0 -5 -34 -44 -75 -87 l-74 -79 47 -42 c26 -23 50 -42 54 -43
4 0 33 30 65 67 32 37 90 101 129 142 39 42 98 108 131 146 33 39 70 79 82 89
29 26 26 47 -12 84 -32 31 -67 42 -67 22 0 -24 -19 -7 -25 23 -7 32 -45 91
-75 115 -22 18 -70 39 -115 51 -47 13 -39 13 -93 -4z m149 -146 c34 -24 59
-67 59 -102 0 -31 -46 -100 -80 -121 -16 -9 -48 -16 -73 -16 -39 0 -49 5 -81
40 -56 62 -47 134 24 194 40 33 108 36 151 5z"/>
<path d="M5385 2157 c-118 -68 -165 -114 -180 -178 -5 -21 -1 -27 20 -37 42
-19 74 -15 84 11 21 54 100 107 160 107 26 0 83 -33 71 -42 -3 -2 -19 -13 -37
-25 -17 -13 -79 -54 -137 -93 -57 -38 -107 -74 -111 -80 -10 -16 42 -79 93
-111 24 -15 63 -31 86 -34 80 -12 199 48 253 129 39 58 45 163 13 227 -50 100
-113 139 -222 138 -40 0 -82 -5 -93 -12z m215 -255 c0 -40 -5 -53 -28 -75 -41
-40 -80 -50 -128 -35 -21 7 -39 20 -39 28 0 15 161 130 183 130 8 0 12 -16 12
-48z"/>
<path d="M2732 2057 c-8 -9 -8 -25 0 -55 10 -40 12 -42 47 -40 44 1 127 -37
148 -69 22 -33 29 -103 12 -103 -17 0 -19 1 -233 122 -38 21 -75 37 -82 34
-23 -9 -47 -69 -51 -131 -4 -51 0 -68 24 -115 34 -67 106 -120 187 -140 49
-12 62 -11 108 4 97 31 153 93 177 197 10 42 11 61 2 77 -6 11 -11 29 -11 40
0 51 -103 146 -191 176 -54 19 -123 20 -137 3z m78 -290 c47 -27 87 -51 89
-53 10 -9 -34 -44 -63 -50 -86 -16 -178 76 -150 150 7 18 17 15 124 -47z"/>
<path d="M5018 1942 l-57 -27 14 -30 c66 -144 95 -219 95 -246 0 -34 -33 -80
-72 -100 -33 -17 -36 -22 -28 -42 6 -12 15 -34 21 -49 6 -17 19 -28 30 -28 22
0 89 56 89 75 0 7 6 17 13 23 10 8 16 6 25 -9 15 -24 23 -24 78 1 40 19 44 23
38 48 -4 15 -10 32 -14 37 -3 6 -17 35 -30 65 -12 30 -33 78 -45 105 -13 28
-35 79 -50 115 -38 92 -40 93 -107 62z"/>
<path d="M3291 1784 c-12 -19 -21 -37 -21 -38 0 -2 -29 -54 -65 -116 -36 -62
-65 -114 -65 -116 0 -3 -10 -21 -23 -42 -45 -71 -119 -214 -114 -219 3 -2 32
-7 65 -10 l59 -5 31 51 c18 28 32 53 32 55 0 2 23 42 50 90 28 48 50 89 50 91
0 13 63 105 68 100 4 -3 10 -39 14 -78 15 -151 37 -333 43 -353 5 -15 20 -23
63 -32 48 -10 58 -10 74 5 10 9 18 20 18 24 0 5 16 33 35 63 19 30 35 57 35
60 0 6 110 198 124 215 8 10 13 -1 23 -50 6 -35 12 -83 12 -107 1 -24 5 -62
11 -85 5 -23 12 -76 15 -119 l7 -76 43 -11 c24 -6 56 -11 70 -11 31 0 31 -16
0 225 -15 121 -23 186 -42 355 l-8 65 -40 7 c-118 23 -106 27 -146 -44 -20
-34 -49 -85 -64 -113 -15 -27 -31 -54 -35 -60 -4 -5 -22 -37 -40 -70 -44 -81
-48 -84 -54 -39 -4 22 -11 58 -16 82 -6 23 -10 66 -10 95 0 50 -23 215 -31
221 -12 8 -91 26 -117 26 -24 0 -34 -7 -51 -36z"/>
<path d="M4474 1449 c-31 -9 -31 -9 -21 -54 6 -25 8 -48 4 -51 -3 -3 -27 2
-53 12 -45 17 -47 17 -61 -2 -20 -28 -13 -58 17 -62 13 -2 33 -10 43 -17 16
-11 15 -14 -18 -43 -19 -17 -35 -35 -35 -39 1 -9 36 -53 43 -53 2 0 21 14 42
30 42 33 55 28 55 -20 0 -15 5 -31 11 -37 12 -12 75 -1 73 13 -1 5 -4 29 -8
52 -5 34 -4 43 6 39 49 -20 90 -29 98 -21 5 5 11 21 15 35 6 23 2 27 -35 39
-55 18 -58 28 -21 57 35 27 39 48 15 74 -16 18 -18 17 -54 -11 -47 -37 -60
-38 -60 -2 0 34 -10 72 -19 71 -3 0 -20 -5 -37 -10z"/>
</g>
</svg>
