<svg xmlns="http://www.w3.org/2000/svg" width="1200" height="1200" viewBox="0 0 1200 1200" version="1.1">
  <path d="M 977.485 185.132 C 966.667 190.921, 945.836 207.399, 929.818 222.840 C 910.224 241.729, 888.337 267.243, 870.086 292.472 C 854.373 314.191, 852.220 318.787, 855.163 324.316 C 857.226 328.191, 870.415 344.257, 878.823 353.135 C 883.320 357.884, 887 362.057, 887 362.409 C 887 362.760, 866.493 386.443, 841.429 415.037 C 813.312 447.115, 795.981 467.660, 796.179 468.681 C 796.356 469.590, 797.014 470.505, 797.642 470.714 C 798.270 470.923, 807.903 461.286, 819.049 449.297 C 830.195 437.309, 844.756 421.686, 851.407 414.580 C 858.058 407.474, 863.950 401.154, 864.500 400.537 C 867.078 397.643, 880.148 383.714, 886.820 376.751 L 894.244 369.002 897.872 372.025 C 919.929 390.403, 938.074 403.284, 943.500 404.418 C 947.408 405.234, 951.031 403.345, 965.553 392.919 C 1002.315 366.526, 1038.910 332.079, 1062.784 301.397 C 1078.259 281.509, 1078.988 279.551, 1074.604 269.639 C 1060.482 237.707, 1027.205 203.192, 994.860 186.930 C 985.927 182.438, 983.072 182.143, 977.485 185.132 M 974 198.140 C 946.311 216.986, 912.982 250.814, 883.641 289.853 C 877.999 297.359, 871.926 305.637, 870.144 308.250 C 866.950 312.932, 866.937 313, 869.202 313 C 878.783 312.998, 959.230 309.903, 961.953 309.431 C 970.704 307.916, 978.030 301.216, 980.467 292.500 C 981.546 288.638, 981.948 276.750, 982.233 240.250 C 982.435 214.262, 982.353 193.008, 982.051 193.017 C 981.748 193.027, 978.125 195.332, 974 198.140 M 991.657 212.660 C 991.296 221.823, 991 242.500, 991 258.610 C 991 275.475, 990.550 289.999, 989.940 292.846 C 987.578 303.858, 978.244 314.114, 967.603 317.390 C 963.800 318.561, 954.094 319.242, 929.500 320.062 C 911.350 320.668, 889.401 321.464, 880.725 321.832 L 864.950 322.500 871.474 330.745 C 885.811 348.866, 909.626 371.222, 930 385.687 C 943.863 395.530, 944.415 395.772, 948.260 393.690 C 953.651 390.771, 982.534 368.708, 995.410 357.672 C 1011.327 344.030, 1033.450 322.130, 1044.808 308.772 C 1055.931 295.690, 1068 279.749, 1068 278.140 C 1068 275.788, 1059.977 261.072, 1053.034 250.689 C 1040.623 232.129, 1019.859 212.436, 999.732 200.136 C 996.010 197.861, 992.818 196, 992.639 196 C 992.460 196, 992.018 203.497, 991.657 212.660 M 938.310 249.946 C 928.184 254.544, 920 266.106, 920 275.816 C 920 295.422, 941.763 303.151, 957.924 289.284 C 960.273 287.269, 961.146 285.822, 960.705 284.673 C 959.766 282.225, 957.075 282.647, 952.095 286.021 C 941.589 293.140, 931.964 291.711, 927.125 282.316 C 925.653 279.458, 925.689 272.823, 927.195 269.297 C 930.750 260.975, 939.874 253.965, 947.066 254.032 C 954.294 254.099, 958.059 261.455, 954.992 269.521 L 953.984 272.173 949.217 268.182 C 944.543 264.269, 943.179 263.643, 939.839 263.882 C 937.846 264.024, 933 273.300, 933 276.974 C 933 284.078, 940.636 286.598, 945.315 281.037 C 946.687 279.407, 948 277.500, 948.234 276.799 C 948.575 275.775, 949.196 275.768, 951.378 276.762 C 955.662 278.714, 959.446 276.257, 960.871 270.598 C 962.457 264.298, 962.276 260.056, 960.248 256.020 C 956.448 248.455, 947.220 245.901, 938.310 249.946 M 940.161 272.547 C 938.736 275.673, 938.666 278, 939.997 278 C 941.143 278, 943.933 271.878, 943.301 270.750 C 942.506 269.328, 941.318 270.007, 940.161 272.547 M 1002.223 272.557 C 999.671 274.344, 999.333 277.202, 1001.463 278.969 C 1003.053 280.289, 1045.849 280.829, 1047.908 279.557 C 1049.775 278.403, 1049.189 273.171, 1047.066 272.035 C 1045.914 271.419, 1036.899 271, 1024.788 271 C 1007.994 271, 1004.057 271.272, 1002.223 272.557 M 943.219 326.250 C 942.648 326.945, 941.872 336.649, 941.470 348.105 L 940.748 368.710 943.097 370.355 C 946.091 372.453, 946.576 372.424, 949 370 C 950.869 368.131, 951 366.667, 951 347.700 C 951 333.244, 950.655 327.055, 949.800 326.200 C 948.234 324.634, 944.522 324.662, 943.219 326.250 M 396.500 340.029 C 327.759 347.756, 267.580 389.944, 237.493 451.500 C 230.871 465.050, 225.507 479.471, 222.566 491.635 L 220.841 498.770 216.816 499.414 C 211.125 500.323, 207.691 502.340, 204.090 506.887 C 185.874 529.886, 185.424 596.014, 203.319 620.217 C 206.862 625.010, 210.034 626.326, 224.379 628.956 L 238.257 631.500 244.276 641.500 C 251.681 653.804, 261.630 667.196, 270.411 676.681 C 275.844 682.549, 276.726 683.947, 275.274 684.386 C 274.298 684.680, 264.593 686.966, 253.707 689.466 C 231.713 694.515, 226.338 696.740, 220.295 703.296 C 214.996 709.045, 214.071 710.936, 209.172 726.049 C 195.896 766.996, 189.083 803.785, 188.273 838.897 C 187.535 870.859, 190.375 888.515, 199.272 907.277 C 212.635 935.460, 234.884 949.321, 271.697 952.397 C 284.448 953.463, 285.007 953.606, 288.197 956.628 C 304.377 971.952, 334.417 983.987, 370.500 989.601 C 376.550 990.542, 382.175 991.865, 383 992.541 C 383.825 993.217, 393.308 995.621, 404.074 997.885 C 419.816 1001.194, 425.693 1002, 434.101 1002 C 445.533 1002, 448.277 1001.018, 449.405 996.523 L 450.038 994 490.269 994.004 L 530.500 994.008 549.500 998.052 C 570.601 1002.543, 564.105 1002.316, 613.522 1000.283 C 632.287 999.511, 632.633 999.456, 639.207 996.219 C 643.477 994.117, 647.509 991.115, 650.435 987.861 L 655 982.784 655 985.836 C 655 992.184, 657.602 993.509, 678.799 997.953 C 694.529 1001.251, 700.111 1002, 708.977 1002 C 725.862 1002, 724 1014.346, 724 902.365 L 724 808 751.250 808 L 778.500 808 778.294 897.136 C 778.071 993.207, 777.997 991.733, 783.198 993.998 C 784.464 994.549, 791.575 996.405, 799 998.122 C 814.921 1001.805, 838.226 1003.287, 842.684 1000.902 C 847.961 998.077, 847.742 1003.039, 848.134 877.355 C 848.490 763.288, 848.450 760.155, 846.595 758.105 C 844.894 756.226, 843.591 756, 834.433 756 L 824.177 756 823.838 744.916 L 823.500 733.832 820.234 730.916 L 816.968 728 773.984 728 L 731 728 731 721.025 L 731 714.049 786.396 713.775 C 840.174 713.508, 841.857 713.442, 844.034 711.500 C 845.267 710.400, 846.856 708.131, 847.564 706.458 C 850.265 700.083, 851.431 667.723, 851.401 600 C 851.363 513.200, 849.979 492.229, 844 487.873 C 835.599 481.753, 782.347 478.764, 678.901 478.606 L 609.303 478.500 607.041 472 C 603.537 461.930, 592.781 440.460, 586.250 430.500 C 559.033 388.987, 518.579 359.459, 471 346.378 C 464.125 344.488, 454.225 342.257, 449 341.421 C 437.517 339.583, 407.539 338.788, 396.500 340.029 M 847.719 345.006 C 843.280 348.498, 790 408.803, 790 410.336 C 790 414.869, 794.593 410.970, 823.950 381.518 C 856.823 348.538, 857.472 347.692, 852.407 344.347 C 850.566 343.131, 850.002 343.210, 847.719 345.006 M 399.500 352.039 C 376.270 354.396, 354.620 360.791, 333.010 371.679 C 287.109 394.805, 254.277 432.994, 238.362 481.769 C 235.801 489.618, 233.884 496.202, 234.103 496.401 C 234.321 496.600, 235.866 496.554, 237.536 496.299 C 240.402 495.862, 240.762 495.268, 243.995 485.668 C 265.670 421.302, 326.733 372.772, 400.417 361.352 C 415.605 358.998, 446.432 359.004, 461.663 361.364 C 471.643 362.910, 492.655 367.731, 497.250 369.529 C 498.212 369.906, 499 369.975, 499 369.683 C 499 368.822, 479.252 361.354, 469.498 358.526 C 449.694 352.785, 419.618 349.998, 399.500 352.039 M 409.944 369.995 C 336.876 378.464, 276.727 423.799, 253.638 487.805 L 251.022 495.058 253.680 496.069 C 255.142 496.624, 257.858 498.691, 259.716 500.660 C 261.573 502.629, 263.222 504.074, 263.380 503.870 C 263.538 503.667, 265.132 499.225, 266.921 494 C 283.912 444.382, 328.767 403.726, 382.212 389.501 C 398.177 385.251, 407.641 383.902, 425.500 383.326 C 467.090 381.987, 505.618 393.397, 539.203 417 C 557.630 429.951, 578.550 452.742, 589.301 471.578 C 591.610 475.625, 594.093 478.950, 594.817 478.968 C 596.471 479.008, 595.984 477.311, 590.856 465.159 C 584.601 450.336, 574.893 434.151, 564.751 421.635 C 558.045 413.361, 555.265 410.950, 543 402.778 C 519.231 386.939, 494.296 377.102, 464.754 371.911 C 451.873 369.647, 421.966 368.602, 409.944 369.995 M 896.721 420.250 C 857.817 469.371, 857.300 470.105, 861.750 469.932 C 863.731 469.855, 913.946 413.922, 914.732 410.917 C 915.402 408.354, 913.320 406, 910.381 406 C 908.522 406, 905.561 409.088, 896.721 420.250 M 428.500 419.030 C 414.323 421.591, 401.055 425.953, 388.380 432.219 C 377.732 437.482, 366.982 445.651, 372.118 444.576 C 373.558 444.275, 382.162 443.560, 391.239 442.987 C 445.520 439.562, 495.437 452.535, 522.522 477.107 L 528.500 482.530 539 481.739 C 544.775 481.304, 551.387 480.711, 553.693 480.421 L 557.886 479.895 554.838 474.697 C 542.427 453.532, 523.130 434.921, 505.139 426.764 C 490.348 420.057, 479.198 417.892, 457 417.417 C 442.696 417.110, 437.491 417.405, 428.500 419.030 M 615 489.007 C 592.175 489.431, 565.175 490.309, 555 490.960 C 536.207 492.161, 515.738 494.426, 514.007 495.496 C 513.483 495.820, 512.613 497.753, 512.074 499.792 C 508.318 514.006, 507.914 676.847, 511.578 699.759 C 512.113 703.108, 512.676 704, 514.257 704 C 516.124 704, 516.216 703.546, 515.626 697.250 C 514.133 681.311, 512.902 610.402, 513.486 574 C 514.288 524.067, 515.963 496.525, 518.065 498.688 C 518.499 499.134, 519.956 502.425, 521.303 506 C 525.940 518.315, 532.152 530.369, 533.095 528.881 C 533.576 528.122, 533.976 526.363, 533.985 524.973 C 534.034 516.808, 542.263 514.501, 581 511.789 C 605.784 510.055, 752.959 510.075, 778.500 511.816 C 811.772 514.084, 821.787 516.041, 823.904 520.688 C 826.855 527.165, 827.434 541.939, 827.467 611.500 C 827.485 650, 827.155 686.563, 826.732 692.750 L 825.964 704 831.915 704 C 836.708 704, 837.971 703.660, 838.408 702.250 C 842.057 690.497, 842.775 544.366, 839.372 506.400 C 838.431 495.911, 837.657 495.243, 824.482 493.558 C 792.258 489.436, 699.964 487.431, 615 489.007 M 316.139 507.110 C 302.187 511.281, 292.928 526.646, 295.032 542.131 C 296.116 550.110, 298.504 554.879, 304.050 560.140 C 320.853 576.083, 347 561.483, 347 536.158 C 347 529.090, 344.603 520, 342.739 520 C 342.149 520, 341.947 519.719, 342.290 519.377 C 343.487 518.180, 337.971 512.302, 333.254 509.749 C 327.698 506.741, 320.885 505.691, 316.139 507.110 M 239.250 508.215 C 235.813 508.743, 233 509.501, 233 509.899 C 233 510.298, 233.943 512.576, 235.095 514.961 C 243.041 531.407, 245.587 567.989, 240.492 592.500 C 239.146 598.978, 235.801 608.926, 232.378 616.636 C 231.894 617.726, 241.679 620, 246.854 620 C 251.901 620, 258.614 603.781, 261.437 584.769 C 265.649 556.405, 260.795 519.624, 251.519 509.615 C 248.910 506.800, 248.653 506.771, 239.250 508.215 M 212.444 516.505 C 206.770 526.188, 203.836 538.265, 202.486 557.500 C 200.759 582.099, 208.890 615, 216.696 615 C 218.725 615, 223.814 606.335, 226.068 599.042 C 233.336 575.522, 232.264 536.378, 223.894 519.731 C 219.290 510.572, 216.398 509.758, 212.444 516.505 M 602.500 521.618 C 569.164 523.447, 558.386 524.231, 557.737 524.872 C 557.317 525.287, 564.292 529.379, 573.237 533.967 C 604.931 550.222, 619.617 557.817, 625.256 560.868 L 630.965 563.957 692.963 564.023 L 754.960 564.088 780.719 544.836 L 806.477 525.585 802.989 524.877 C 791.520 522.548, 763.100 521.712, 688.500 521.508 C 644.500 521.387, 605.800 521.437, 602.500 521.618 M 543.326 536.716 C 542.258 544.197, 542.244 689, 543.311 695.250 C 544.169 700.273, 544.699 700.759, 547.129 698.750 C 548.391 697.707, 548.517 695.844, 547.892 687.500 C 546.560 669.705, 545.693 602.186, 546.470 576.737 L 547.226 551.974 555.067 564.237 C 571.031 589.202, 592.659 613.562, 616 632.868 L 624.500 639.898 624.764 606.763 C 624.909 588.538, 624.678 573.278, 624.251 572.851 C 623.403 572.003, 616.911 568.626, 577 548.273 C 562.425 540.840, 549.072 533.897, 547.326 532.845 L 544.153 530.931 543.326 536.716 M 808.750 537.580 C 805.038 540.146, 802 542.640, 802 543.123 C 802 543.605, 801.611 544, 801.136 544 C 800.404 544, 780.803 558.224, 766.288 569.289 L 762.076 572.500 762.038 613.114 L 762 653.728 773.750 663.304 C 780.212 668.571, 792.250 678.369, 800.500 685.078 L 815.500 697.276 816.317 687.888 C 817.382 675.643, 817.386 558.846, 816.321 544.208 L 815.500 532.915 808.750 537.580 M 654.517 576.740 C 659.226 587.958, 659.107 586.914, 658.796 614.388 C 658.503 640.243, 658.473 640.567, 655.895 645.773 L 653.289 651.033 702.157 650.981 L 751.024 650.929 750.762 613.214 L 750.500 575.500 702.139 575.240 C 656.311 574.994, 653.817 575.073, 654.517 576.740 M 309.567 581.946 C 305.707 584.491, 304.079 587.605, 304.035 592.527 C 303.977 599.115, 308.203 603.916, 314.104 603.968 C 320.243 604.022, 325 598.070, 325 590.335 C 325 587.648, 324.184 585.984, 321.600 583.400 C 317.651 579.451, 314.019 579.012, 309.567 581.946 M 268.535 608.718 C 268.160 610.212, 266.705 613.861, 265.303 616.825 L 262.753 622.215 265.019 626.358 C 283.737 660.577, 317.686 691.648, 354.010 707.805 L 360.520 710.701 366.916 706.405 L 373.311 702.108 368.906 700.352 C 358.717 696.290, 342.772 687.800, 332.500 680.968 C 316.554 670.361, 296.099 649.724, 285.345 633.395 C 280.961 626.737, 275.827 617.850, 273.937 613.646 C 272.047 609.442, 270.211 606.002, 269.858 606.001 C 269.506 606, 268.910 607.223, 268.535 608.718 M 254.089 630.936 C 252.954 631.645, 253.598 633.291, 257.390 639.376 C 273.171 664.695, 295.926 686.980, 322.250 702.896 C 327.956 706.346, 326.724 704.671, 320.750 700.856 C 298.487 686.642, 270.519 656.917, 257.500 633.633 C 256.030 631.003, 255.126 630.289, 254.089 630.936 M 692.694 661.640 C 692.312 662.021, 692 677.108, 692 695.167 L 692 728 706.513 728 L 721.027 728 720.763 694.750 L 720.500 661.500 706.944 661.223 C 699.488 661.071, 693.075 661.258, 692.694 661.640 M 732 675.396 L 732 689.792 741.250 691.500 C 757.463 694.493, 768.209 695.943, 779.283 696.633 C 786.408 697.077, 789.941 697.677, 789.700 698.402 C 789.448 699.157, 780.372 699.583, 760.667 699.765 C 732.830 700.023, 732 700.088, 732 702.015 C 732 703.959, 732.762 704, 769.167 704 C 789.608 704, 806.146 703.825, 805.917 703.612 C 805.687 703.398, 798.975 697.983, 791 691.578 C 783.025 685.174, 774.509 678.261, 772.075 676.217 C 769.641 674.172, 765.596 670.925, 763.085 669 C 760.575 667.075, 757.396 664.487, 756.021 663.250 C 753.755 661.211, 752.511 661, 742.760 661 L 732 661 732 675.396 M 458.500 688.676 C 440.389 690.214, 417.634 694.561, 404.563 698.979 C 390.320 703.793, 375.177 711.957, 364.297 720.685 C 361.985 722.539, 355.067 726.297, 348.922 729.035 C 336.571 734.538, 324.761 741.909, 322.317 745.639 C 320.977 747.683, 320.820 750.354, 321.304 762.780 C 322.135 784.113, 327.604 805.153, 334.137 812.146 C 336.875 815.078, 337.334 815.212, 343.351 814.829 C 348.321 814.512, 351.705 813.441, 359.091 809.847 C 364.266 807.329, 371.098 803.507, 374.274 801.354 L 380.048 797.438 380.437 779.126 C 380.950 754.952, 380.109 756, 398.992 756 L 412.635 756 414.435 750.290 C 415.848 745.805, 417.562 743.252, 422.425 738.390 C 427.669 733.145, 429.677 731.866, 435.558 730.020 C 441.787 728.064, 444.401 727.863, 461 728.065 C 471.175 728.189, 483.264 728.225, 487.864 728.145 L 496.227 728 495.531 723.250 C 495.147 720.638, 493.859 716.718, 492.667 714.540 C 490.688 710.924, 489.980 710.476, 484.507 709.380 C 473.986 707.275, 460.095 706.762, 449 708.070 C 433.939 709.846, 433.500 709.832, 433.500 707.564 C 433.500 703.572, 457.744 699.561, 478.355 700.143 C 491.828 700.524, 492 700.465, 492 695.441 C 492 694.059, 491.049 692.426, 489.750 691.580 C 485.442 688.772, 472.038 687.526, 458.500 688.676 M 261 697.884 C 234.480 704.093, 231.136 705.254, 233.066 707.580 C 235.275 710.241, 247.740 717.996, 255.477 721.521 C 261.312 724.180, 263.058 725.431, 262.784 726.758 C 262.492 728.176, 261.502 728.452, 257.463 728.244 C 248.137 727.762, 234.019 721.926, 227.324 715.786 C 226.127 714.689, 224.675 714.083, 224.097 714.440 C 222.538 715.404, 215.534 737.855, 209.984 759.679 C 191.122 833.847, 193.815 890.143, 217.554 917.955 C 226.376 928.290, 235.362 934.198, 248.500 938.302 C 255.581 940.513, 274.697 943.636, 275.604 942.730 C 275.792 942.541, 274.365 938.728, 272.432 934.256 C 265.361 917.903, 261.552 895.492, 262.160 873.824 C 262.457 863.217, 262.441 863.135, 259.709 860.986 C 255.465 857.647, 253.803 853.393, 253.244 844.432 C 252.309 829.443, 258.082 817, 265.972 817 C 268.631 817, 268.874 816.625, 270.286 810.330 C 271.747 803.819, 271.722 803.503, 269.264 797.080 C 266.164 788.978, 264.983 769.872, 266.958 759.771 C 270.152 743.440, 278.997 727.949, 293.289 713.657 C 298.157 708.789, 301.996 704.678, 301.820 704.521 C 300.001 702.901, 285.965 692.018, 285.765 692.074 C 285.619 692.114, 274.475 694.729, 261 697.884 M 563.709 701.705 L 559.500 703.910 608.750 703.955 C 657.182 703.999, 658 703.967, 658 702.020 C 658 700.080, 657.090 700.035, 612.959 699.770 C 568.205 699.502, 567.891 699.514, 563.709 701.705 M 499.718 704.292 C 499.220 705.591, 501.613 709.725, 502.401 708.927 C 503.085 708.235, 501.839 703, 500.990 703 C 500.563 703, 499.991 703.581, 499.718 704.292 M 304.761 716.313 C 285.845 732.366, 275.846 752.098, 275.773 773.513 C 275.679 801.017, 286.868 813.497, 312.750 814.762 C 318.387 815.037, 323 814.960, 323 814.591 C 323 814.222, 322.107 812.171, 321.017 810.033 C 315.913 800.028, 311 775.516, 311 760.054 C 311 752.726, 310.816 751.919, 309.250 752.379 C 303.125 754.179, 300.156 754.161, 299.171 752.319 C 297.670 749.514, 299.198 747.751, 305.913 744.541 C 309.246 742.949, 314.536 739.278, 317.670 736.385 C 320.804 733.491, 326.200 729.468, 329.660 727.444 L 335.952 723.764 329.226 720.523 C 325.527 718.741, 320.118 715.869, 317.206 714.141 C 314.294 712.413, 311.712 711, 311.467 711 C 311.222 711, 308.204 713.391, 304.761 716.313 M 511.750 717.563 C 504.959 721.048, 504.526 721.629, 505.630 725.750 L 506.233 728 548.696 728 L 591.159 728 590.457 724.750 C 590.072 722.962, 588.902 719.813, 587.858 717.750 L 585.959 714 552.230 714.049 L 518.500 714.098 511.750 717.563 M 598.402 716.250 C 598.751 717.487, 599.516 720.638, 600.101 723.250 L 601.166 728 629.515 728 C 661.435 728, 659.113 728.641, 658.500 720 C 658.325 717.525, 658.141 715.163, 658.091 714.750 C 658.041 714.337, 644.448 714, 627.883 714 L 597.767 714 598.402 716.250 M 567.667 738.667 C 567.300 739.033, 567 742.858, 567 747.167 L 567 755 583.500 755 L 600 755 600 746.500 L 600 738 584.167 738 C 575.458 738, 568.033 738.300, 567.667 738.667 M 611.674 738.660 C 611.303 739.030, 611 742.847, 611 747.141 L 611 754.948 680.041 754.986 L 749.081 755.025 748.791 746.762 L 748.500 738.500 680.424 738.243 C 642.982 738.102, 612.044 738.289, 611.674 738.660 M 760 746.484 L 760 755 787.040 755 L 814.081 755 813.790 746.750 L 813.500 738.500 786.750 738.234 L 760 737.967 760 746.484 M 390.799 781.501 L 390.500 797.003 477.250 797.001 L 564 797 564 781.500 L 564 766 477.549 766 L 391.098 766 390.799 781.501 M 574.729 781.145 C 574.855 789.475, 575.114 796.447, 575.305 796.638 C 575.496 796.829, 634.793 796.996, 707.076 797.008 L 838.500 797.031 838.775 781.516 L 839.051 766 706.775 766 L 574.500 766 574.729 781.145 M 391 896.500 L 391 985 393.750 985.185 C 395.262 985.286, 397.411 985.422, 398.525 985.487 C 399.639 985.551, 401.039 985.906, 401.636 986.275 C 402.234 986.644, 404.247 987.158, 406.111 987.417 C 407.975 987.676, 410.850 988.275, 412.500 988.747 C 414.150 989.219, 416.303 989.582, 417.284 989.553 C 418.981 989.503, 419.078 985.067, 419.284 898.750 L 419.500 808 405.250 808 L 391 808 391 896.500 M 430 900 L 430 992 434.500 992 L 439 992 439 900 L 439 808 434.500 808 L 430 808 430 900 M 450 826.925 L 450 845.850 455.726 849.675 C 464.445 855.499, 466 858.449, 466 869.173 C 466 877.762, 466.082 878.081, 468.544 879.017 C 474.316 881.211, 475.960 881.281, 476.552 879.356 C 478.170 874.099, 483.375 864.591, 486.573 861.051 C 491.080 856.062, 495.728 853.153, 503.434 850.500 C 509.079 848.556, 509.473 848.209, 510.291 844.469 C 511.570 838.613, 510.562 821.421, 508.518 814.250 L 506.736 808 478.368 808 L 450 808 450 826.925 M 517.338 809.437 C 518.376 812.143, 519.817 818.499, 520.470 823.250 C 520.993 827.059, 521.507 828, 523.061 828 C 524.850 828, 525 827.228, 525 818 L 525 808 520.893 808 C 517.733 808, 516.913 808.331, 517.338 809.437 M 535 896.500 L 535 985 538.250 985.171 C 542.828 985.412, 544.286 985.627, 546 986.313 C 547.390 986.870, 562.223 990, 563.472 990 C 563.777 990, 564.008 949.050, 563.984 899 L 563.941 808 549.470 808 L 535 808 535 896.500 M 575 900 L 575 992 582.500 992 L 590 992 590 900 L 590 808 582.500 808 L 575 808 575 900 M 601 829.824 L 601 851.649 611.750 851.665 C 629.501 851.691, 640.716 855.777, 650.011 865.605 L 655 870.880 655 839.440 L 655 808 628 808 L 601 808 601 829.824 M 665 896.271 L 665 984.542 677.250 986.850 C 683.987 988.119, 690.513 989.395, 691.750 989.687 L 694 990.217 694 899.108 L 694 808 679.500 808 L 665 808 665 896.271 M 705 900 L 705 992 709.500 992 L 714 992 714 900 L 714 808 709.500 808 L 705 808 705 900 M 789.245 896.656 L 789.500 985.311 800.250 987.516 L 811 989.720 811 898.860 L 811 808 799.995 808 L 788.989 808 789.245 896.656 M 822 900 L 822 992 829.500 992 L 837 992 837.162 904.250 C 837.251 855.987, 837.405 814.587, 837.504 812.250 L 837.685 808 829.842 808 L 822 808 822 900 M 372 814.553 C 367.875 817.039, 363.488 819.330, 362.250 819.645 C 360.084 820.196, 360 820.636, 360 831.477 L 360 842.737 364.153 843.294 C 366.765 843.644, 369.269 844.818, 370.903 846.459 C 373.448 849.016, 373.497 849.329, 373.367 862.034 L 373.233 875 376.617 875 L 380 875 380 842.500 C 380 824.625, 379.887 810.008, 379.750 810.017 C 379.613 810.026, 376.125 812.067, 372 814.553 M 474.145 813.070 C 464.185 817.059, 459.118 827.816, 462.459 837.878 C 465.723 847.703, 475.561 853.356, 485.440 851.084 C 495.806 848.699, 501.582 840.722, 500.797 829.873 C 500.306 823.086, 496.912 817.988, 490.405 814.266 C 486.234 811.881, 478.530 811.314, 474.145 813.070 M 279.605 815.588 C 277.954 819.889, 278.816 820.711, 288.750 824.312 C 306.123 830.610, 331.732 837.780, 346.250 840.411 L 350 841.091 350 832.788 L 350 824.485 330.250 824.723 C 303.607 825.044, 292.946 823.082, 283.056 816.040 C 280.557 814.261, 280.135 814.205, 279.605 815.588 M 479.500 819.672 C 475.206 820.617, 472 822.305, 472 823.621 C 472 824.380, 471.568 825, 471.040 825 C 470.512 825, 469.563 826.727, 468.930 828.838 C 467.968 832.051, 468.058 833.212, 469.487 835.975 C 472.397 841.602, 475.746 844, 480.696 844 C 489.243 844, 494 839.617, 494 831.742 C 494 825.952, 491.825 822.243, 487.328 820.364 C 484.007 818.976, 483.048 818.891, 479.500 819.672 M 264.890 829.750 C 263.332 833.792, 262.643 842.135, 263.433 847.402 C 264.255 852.885, 264.004 852.727, 283.277 859.891 C 297.155 865.050, 315.143 870.397, 329 873.482 C 337.052 875.275, 362.182 879.151, 362.659 878.674 C 362.818 878.515, 363.250 872.735, 363.619 865.828 L 364.290 853.271 359.395 852.575 C 337.013 849.395, 304.240 840.813, 281.076 832.068 C 273.693 829.281, 267.270 827, 266.802 827 C 266.334 827, 265.473 828.237, 264.890 829.750 M 520.975 840.565 C 519.404 844.697, 519.782 847.710, 521.942 848.275 C 524.644 848.981, 525 848.347, 525 842.833 C 525 839.169, 524.631 838, 523.475 838 C 522.637 838, 521.512 839.154, 520.975 840.565 M 450 866.351 L 450 874.773 453.006 875.214 C 454.659 875.457, 456.234 875.433, 456.506 875.161 C 456.778 874.889, 457 872.367, 457 869.556 C 457 864.215, 455.372 860.805, 451.949 858.973 C 450.089 857.977, 450 858.313, 450 866.351 M 508.407 859.407 C 502.607 860.814, 497.717 863.586, 493.807 867.680 C 487.662 874.114, 483 889.999, 483 904.506 C 483 913.091, 482.446 915, 479.952 915 C 477.273 915, 476.924 913.962, 475.641 902.188 L 474.476 891.500 466.488 888.879 C 462.095 887.438, 456.587 885.936, 454.250 885.541 L 450 884.824 450 934.412 L 450 984 485.998 984 L 521.997 984 518.485 979.112 C 506.782 962.822, 500.416 934.612, 502.930 910.182 C 504.850 891.531, 510.410 875.021, 518.469 864.042 C 520.411 861.397, 522 858.955, 522 858.616 C 522 857.606, 513.876 858.079, 508.407 859.407 M 601 864.691 C 601 866.946, 601.203 867.149, 602.250 865.941 C 602.938 865.149, 604.153 863.938, 604.950 863.250 C 606.167 862.201, 605.967 862, 603.700 862 C 601.436 862, 601 862.434, 601 864.691 M 618.500 865.935 C 613.020 868.525, 609.849 871.473, 605.071 878.416 L 601 884.332 601 926.206 C 601 965.355, 601.123 968.321, 602.897 971.790 C 605.756 977.379, 612.730 984.817, 617.372 987.227 C 622.432 989.853, 630.172 989.997, 634.901 987.551 C 640.404 984.705, 646.680 977.390, 650.967 968.827 L 655 960.768 655 927.081 L 655 893.394 651.009 885.140 C 642.639 867.832, 630.125 860.440, 618.500 865.935 M 272.743 867.682 C 271.789 869.383, 271.913 882.186, 272.999 893.988 C 276.912 936.523, 292.173 956.028, 332.509 970.050 C 346.011 974.744, 378.413 981.920, 379.808 980.526 C 380.067 980.266, 380.495 958.667, 380.759 932.527 C 381.181 890.640, 381.059 885, 379.731 885 C 375.898 885, 359.763 890.514, 353.084 894.107 C 349.006 896.301, 344.736 897.962, 343.595 897.798 C 340.149 897.303, 340.529 894.181, 344.488 890.447 C 346.498 888.551, 347.972 887, 347.764 887 C 345.234 887, 322.607 882.207, 312.531 879.537 C 301.642 876.652, 281.143 870.125, 274.851 867.541 C 273.944 867.168, 272.996 867.232, 272.743 867.682 M 521.347 879 C 509.415 903.598, 509.385 939.225, 521.275 963.826 L 524.500 970.500 524.768 945.681 C 524.915 932.030, 524.915 909.980, 524.768 896.681 L 524.500 872.500 521.347 879" stroke="none" fill="#331b43" fill-rule="evenodd"/>
</svg>
