<svg xmlns="http://www.w3.org/2000/svg" width="500" height="500" viewBox="0 0 500 500" version="1.1"><path d="M 259.500 67.587 C 243.699 71.074, 227.888 79.561, 215.361 91.279 L 209.037 97.194 204.074 95.922 C 200.055 94.892, 198.301 94.893, 194.855 95.925 C 187.895 98.011, 184.971 101.961, 179.448 116.740 C 174.791 129.201, 174.342 129.981, 171.815 129.990 C 167.380 130.006, 164.170 131.726, 158.415 137.168 C 155.321 140.095, 152.601 141.943, 152.154 141.422 C 151.720 140.915, 148.378 136.858, 144.727 132.407 C 131.943 116.820, 121.765 110.974, 115.299 115.503 C 109.991 119.221, 110.220 128.093, 115.896 138.607 L 118.653 143.714 113.830 150.107 C 107.058 159.084, 102.014 169.084, 101.326 174.899 C 100.865 178.786, 101.212 180.806, 102.960 184.417 C 105.815 190.315, 112.353 197.009, 119.948 201.812 C 123.295 203.928, 134.554 214.106, 145.331 224.756 L 164.699 243.898 162.881 251.199 C 161.880 255.215, 160.590 262.775, 160.014 268 C 159.437 273.225, 158.455 281.100, 157.831 285.500 C 157.207 289.900, 156.680 298.225, 156.659 304 C 156.628 312.640, 157.105 316.094, 159.349 323.500 C 160.850 328.450, 162.847 334.066, 163.789 335.980 C 166.037 340.551, 172.696 345.487, 179.518 347.637 C 182.533 348.588, 185 349.879, 185 350.506 C 185 351.134, 183.650 364.332, 182 379.835 C 180.350 395.338, 179 408.384, 179 408.826 C 179 409.268, 177.313 410.421, 175.250 411.388 C 168.506 414.550, 163.918 418.283, 161.314 422.727 C 158.048 428.300, 158.391 435.628, 162.106 439.668 C 167.137 445.139, 172.005 446.399, 189.749 446.820 C 219.035 447.515, 229.712 443.506, 235.506 429.639 C 236.369 427.575, 239.994 410.526, 243.562 391.752 C 247.130 372.978, 250.188 357.479, 250.357 357.309 C 250.527 357.140, 251.222 364.763, 251.902 374.251 C 254.886 415.888, 256.987 430.999, 260.551 436.438 C 264.588 442.598, 277.303 445.967, 296.500 445.962 C 311.390 445.958, 320.311 444.415, 325.331 440.975 C 331.432 436.795, 333.773 428.329, 330.551 422.099 C 328.473 418.081, 322.398 413.055, 316.814 410.734 L 312 408.733 311.997 403.617 C 311.991 394.670, 307.338 350.228, 305.426 340.852 C 304.908 338.310, 305.100 338.176, 310.193 337.538 C 317.037 336.679, 327.125 331.825, 330.598 327.718 C 332.095 325.948, 334.429 322.087, 335.784 319.139 C 341.703 306.263, 335.599 288.452, 312.945 252.493 C 309.675 247.303, 307.006 242.707, 307.012 242.279 C 307.019 241.850, 310.128 240.244, 313.921 238.709 C 323.268 234.926, 332.110 229.047, 340.198 221.238 L 346.945 214.725 351.379 215.966 C 357.931 217.800, 363.525 216.524, 368.174 212.135 C 371.361 209.125, 372.967 205.981, 377.512 193.848 C 380.530 185.790, 383 177.563, 383 175.566 C 383 168.560, 379.789 163.773, 372.246 159.534 C 368.858 157.630, 368.606 157.149, 368.308 152 C 367.547 138.854, 364.341 126.593, 358.772 115.533 C 354.508 107.065, 350.753 101.836, 343.145 93.771 C 331.855 81.803, 319.471 74.225, 303.297 69.387 C 292.020 66.015, 270.613 65.135, 259.500 67.587 M 260.241 72.572 C 256.799 73.326, 251.067 75.110, 247.503 76.536 C 240.827 79.207, 231.662 83.996, 232.199 84.533 C 232.366 84.699, 234.977 84.121, 238.001 83.246 C 246.214 80.872, 273.750 80.912, 285 83.316 C 311.257 88.925, 333.728 100.389, 349.250 116.094 C 353.512 120.407, 357 123.710, 357 123.435 C 357 122.027, 351.236 111.760, 347.440 106.405 C 342.097 98.867, 330.106 87.607, 322.694 83.167 C 314.903 78.501, 304.289 74.347, 295.534 72.539 C 286.462 70.665, 268.870 70.682, 260.241 72.572 M 252.500 85.657 C 243.235 86.528, 232.912 89.437, 224.153 93.647 C 219.012 96.118, 215.024 98.357, 215.290 98.623 C 215.556 98.890, 217.288 98.176, 219.137 97.038 C 230.723 89.908, 254.050 87.115, 274.068 90.463 C 313.012 96.975, 346.825 116.500, 358.528 139.234 C 360.691 143.436, 362.638 146.695, 362.856 146.478 C 363.073 146.260, 361.334 142.211, 358.990 137.480 C 347.356 113.994, 318.362 94.853, 284.188 88.098 C 274.211 86.125, 259.543 84.996, 252.500 85.657 M 194.325 101.459 C 190.032 103.327, 188.925 105.276, 182.979 121.447 C 179.080 132.052, 177.998 136.176, 178.464 138.658 C 179.100 142.051, 184.189 148, 186.454 148 C 187.279 148, 188.567 144.440, 189.981 138.250 C 192.658 126.527, 196.795 116.175, 202.048 108.047 C 205.711 102.380, 205.825 101.977, 204.033 101.017 C 201.468 99.645, 198.149 99.796, 194.325 101.459 M 294.500 111.519 C 308.173 122.071, 317.583 132.238, 323.768 143.140 C 329.718 153.629, 332.557 167.090, 333.861 191 L 334.543 203.500 339.264 193.968 C 351.066 170.145, 350.692 151.956, 338.109 137.812 C 333.041 132.115, 323.666 124.645, 315.261 119.607 C 308.760 115.711, 290.932 108.766, 294.500 111.519 M 116.944 121.105 C 115.446 123.904, 116.500 129.067, 119.976 135.953 C 122.498 140.949, 123.251 141.652, 127.215 142.712 C 132.520 144.131, 142.411 151.194, 146.658 156.597 C 153.839 165.733, 154.713 171.612, 150.250 180.765 C 146.941 187.550, 139.042 195.918, 133.068 198.965 L 128.713 201.187 143.034 215.534 C 158.978 231.507, 157.034 230.735, 166 224.650 C 172.709 220.096, 180.700 212.259, 185.544 205.481 C 192.113 196.290, 192.091 195.685, 184.895 187.500 C 175.561 176.884, 167 165.068, 167 162.802 C 167 161.688, 168.611 156.476, 170.580 151.219 C 173.240 144.117, 173.999 140.807, 173.534 138.331 C 172.527 132.961, 169.196 133.803, 161 141.500 C 157.194 145.075, 153.450 148, 152.681 148 C 151.912 148, 147.580 143.476, 143.054 137.946 C 129.794 121.744, 119.987 115.419, 116.944 121.105 M 216.441 124.494 C 210.207 131.104, 210.694 144.968, 217.304 149.087 C 223.684 153.061, 230.711 148.542, 233.002 138.990 C 236.302 125.236, 225.038 115.378, 216.441 124.494 M 117.564 153.313 C 103.616 171.916, 102.788 179.829, 113.670 190.538 C 116.735 193.555, 120.333 196.297, 121.665 196.631 C 128.494 198.345, 141.045 188.739, 146.473 177.644 C 149.032 172.414, 149.180 171.542, 148.109 167.968 C 146.802 163.607, 137.836 153.298, 132.460 149.975 C 130.596 148.823, 127.694 147.486, 126.012 147.003 C 123.060 146.157, 122.764 146.377, 117.564 153.313 M 174.427 155.008 C 171.996 161.204, 171.830 162.314, 173.005 164.509 C 174.450 167.209, 184.450 179.784, 190.890 187 L 194.906 191.500 192.917 186.145 C 190.014 178.328, 188 167.788, 188 160.410 C 188 154.354, 187.835 153.888, 185.369 152.950 C 183.923 152.400, 181.488 151.060, 179.959 149.971 L 177.180 147.992 174.427 155.008 M 223.195 164.033 C 220.621 166.431, 220.347 170.622, 222.557 173.777 C 225.705 178.273, 232 175.330, 232 169.362 C 232 163.549, 226.977 160.509, 223.195 164.033 M 367.095 170.313 C 365.466 180.408, 360.985 192.769, 355.585 202.062 C 353.063 206.403, 351 210.169, 351 210.432 C 351 210.694, 352.582 211.206, 354.517 211.569 C 358.575 212.331, 362.900 210.833, 365.774 207.670 C 368.686 204.466, 378 179.670, 378 175.123 C 378 170.769, 375.368 166.759, 371.042 164.522 L 368.261 163.084 367.095 170.313 M 191.530 204.951 C 186.873 212.617, 177.441 222.233, 168.247 228.691 L 161.137 233.684 172.818 244.247 C 179.243 250.057, 187.650 257.369, 191.500 260.496 C 201.919 268.959, 201.646 268.623, 199.784 270.719 C 198.729 271.906, 198.084 274.982, 197.851 279.942 L 197.500 287.384 202 288.765 C 204.475 289.524, 211.338 290.402, 217.250 290.715 L 228 291.283 228 287.092 C 228 281.098, 230.386 277.156, 235.321 274.994 C 238.819 273.462, 243.738 273.028, 265.500 272.332 C 279.800 271.874, 293.249 271.628, 295.386 271.783 L 299.273 272.067 298.630 268.283 C 297.153 259.583, 296.715 250, 297.794 250 C 299.468 250, 299.748 250.836, 302.351 263.590 C 303.688 270.140, 305.321 276.667, 305.980 278.094 C 307.149 280.623, 307.370 280.676, 314.839 280.218 C 319.053 279.959, 322.657 279.610, 322.848 279.442 C 323.278 279.065, 313.523 262.388, 306.395 251.313 L 301.126 243.126 297.313 244.280 C 291.052 246.175, 264.684 245.816, 257 243.732 C 235.295 237.844, 222.683 229.306, 202.275 206.684 L 195.225 198.869 191.530 204.951 M 212.820 210.714 C 222.191 222.714, 238.818 233.377, 255.702 238.214 C 265.402 240.993, 287.778 241.421, 297.500 239.015 L 303.500 237.529 286 236.887 C 266.176 236.158, 258.693 234.573, 243.281 227.838 C 234.794 224.129, 221.518 215.978, 213.015 209.255 L 209.530 206.500 212.820 210.714 M 168.605 248.830 C 166.480 252.269, 161.876 288.209, 163.369 289.702 C 163.753 290.087, 168.765 290.886, 174.506 291.479 L 184.944 292.556 187.241 289.938 C 188.505 288.499, 190.060 287.136, 190.699 286.910 C 191.355 286.678, 192.287 282.593, 192.845 277.500 L 193.830 268.500 190.175 265.500 C 188.164 263.850, 183.428 259.800, 179.650 256.500 C 170.568 248.567, 169.308 247.692, 168.605 248.830 M 264.660 276.922 C 250.841 277.499, 250.816 277.504, 248.263 280.477 L 245.705 283.454 246.373 300.433 C 247.302 324.070, 247.699 324.518, 266.713 323.381 L 278.127 322.699 277.962 319.599 C 277.351 308.120, 277.836 306.005, 282.033 301.850 L 286.066 297.857 285.783 287.179 L 285.500 276.500 282 276.422 C 280.075 276.379, 272.272 276.604, 264.660 276.922 M 289.392 285.843 C 290.164 297.059, 289.650 299.035, 284.610 304.200 C 281.096 307.802, 281 308.106, 281 315.599 L 281 323.297 289.613 322.689 C 304.370 321.648, 305.397 319.846, 304.196 297.092 L 303.386 281.734 300.177 278.867 C 297.743 276.692, 295.972 276, 292.841 276 L 288.714 276 289.392 285.843 M 234.923 280.923 C 231.267 284.579, 230.879 289.510, 234.166 290.553 C 235.357 290.931, 237.495 292.515, 238.916 294.074 L 241.500 296.908 241.166 290.476 C 240.941 286.156, 241.326 283.052, 242.339 281.022 L 243.847 278 240.846 278 C 238.864 278, 236.855 278.991, 234.923 280.923 M 315 284.443 C 315 284.829, 316.120 287.055, 317.489 289.391 C 318.858 291.728, 320.334 296.308, 320.768 299.570 C 321.658 306.256, 321.214 316, 320.019 316 C 319.585 316, 318.915 313.478, 318.530 310.395 C 317.615 303.066, 315.300 295.304, 312.823 291.250 C 309.116 285.184, 308.477 286.909, 308.804 302.090 C 309.107 316.133, 309.097 316.204, 306.040 322.077 C 302.997 327.924, 302.988 327.988, 304.924 329.924 C 306.696 331.696, 306.721 331.918, 305.189 332.323 C 304.260 332.568, 304.881 332.820, 306.568 332.884 C 311.216 333.060, 319.193 330.367, 323.701 327.101 C 326.139 325.336, 328.770 322.095, 330.365 318.895 C 334.066 311.468, 333.944 304.383, 329.934 293.986 C 328.248 289.614, 326.535 285.831, 326.127 285.578 C 324.755 284.730, 315 283.735, 315 284.443 M 253.353 290.867 C 247.060 294.823, 246.681 305.244, 252.659 309.946 C 255.672 312.316, 263.002 312.715, 267 310.727 C 273.030 307.729, 274.429 297.935, 269.625 292.350 C 266.494 288.710, 258.013 287.937, 253.353 290.867 M 190.520 292.978 C 188.255 295.481, 188.975 302.777, 191.684 304.759 C 196.271 308.116, 204.344 309.500, 219.331 309.500 C 235.946 309.500, 237 309.067, 237 302.243 C 237 295.289, 236.406 295, 222.125 295 C 212.593 295, 207.321 294.489, 201.500 293 C 191.996 290.569, 192.698 290.571, 190.520 292.978 M 260.260 294.250 C 259.719 294.938, 259.002 296.649, 258.668 298.054 C 257.987 300.917, 260.677 304, 263.856 304 C 265.921 304, 269.678 300.345, 268.661 299.327 C 268.297 298.964, 268 299.192, 268 299.833 C 268 300.475, 267.560 301, 267.021 301 C 266.423 301, 266.480 300.040, 267.168 298.530 C 268.029 296.641, 267.995 295.699, 267.025 294.530 C 265.492 292.683, 261.621 292.523, 260.260 294.250 M 161.207 305.122 C 161.711 316.927, 163.619 322.185, 168.068 324.028 C 173.170 326.141, 176.902 322.083, 179.588 311.500 L 180.857 306.500 180.295 313 C 179.986 316.575, 179.106 320.738, 178.341 322.250 C 176.853 325.189, 177.699 325.767, 180.945 324.029 C 185.010 321.854, 187.137 309.908, 185.129 300.540 C 184.397 297.125, 182.678 296.577, 169.132 295.444 L 160.764 294.744 161.207 305.122 M 240.156 308.685 C 239.322 310.659, 237.706 312.255, 235.906 312.883 C 232.236 314.162, 232.131 316.814, 235.589 320.923 C 237.558 323.263, 239.003 324, 241.624 324 C 244.894 324, 245.008 323.885, 243.847 321.750 C 243.174 320.512, 242.370 316.350, 242.061 312.500 C 241.504 305.550, 241.490 305.523, 240.156 308.685 M 194.524 313.144 C 193.922 314.792, 188 367.428, 188 371.131 C 188 373.435, 188.592 373.913, 192.750 374.967 C 202.298 377.387, 208.825 378.020, 224.391 378.036 C 233.131 378.045, 240.431 377.902, 240.614 377.720 C 240.796 377.537, 241.638 374.038, 242.483 369.944 C 246.229 351.810, 249.267 340.031, 250.638 338.334 C 251.972 336.683, 252.078 337.222, 251.694 343.740 L 251.268 350.981 255.384 350.402 C 270.396 348.290, 283.698 342.433, 291.737 334.393 C 297.422 328.709, 298.315 326.659, 294.750 327.480 C 293.512 327.765, 279.823 328.111, 264.328 328.249 L 236.156 328.500 233.035 325.522 C 231.215 323.785, 229.462 320.748, 228.829 318.236 L 227.745 313.930 222.122 314.547 C 216.954 315.114, 203.726 313.973, 197.581 312.431 C 195.863 312, 194.856 312.234, 194.524 313.144 M 185.159 326.688 C 182.184 329.470, 175.048 331.026, 170.242 329.942 C 168.215 329.485, 166.469 329.198, 166.363 329.305 C 165.422 330.252, 169.660 336.466, 172.797 338.738 C 176.628 341.513, 184.576 344.757, 185.436 343.897 C 186.045 343.289, 188.251 326.202, 187.841 325.273 C 187.653 324.848, 186.447 325.485, 185.159 326.688 M 294.946 338.570 C 287.947 345.821, 275.279 351.949, 262.319 354.353 C 258.919 354.984, 256.049 355.841, 255.941 356.258 C 255.832 356.675, 256.064 361.963, 256.456 368.008 C 257.056 377.268, 257.431 379.012, 258.834 379.073 C 271.082 379.611, 284.196 378.110, 294.175 375.028 C 304.660 371.789, 304.557 371.957, 303.164 360.384 C 301.258 344.540, 299.702 335, 299.023 335 C 298.676 335, 296.842 336.606, 294.946 338.570 M 297.113 378.633 C 288.781 381.770, 275.747 384, 265.740 384 L 257.742 384 258.449 394.250 C 259.669 411.947, 261.833 426.833, 263.847 431.388 C 265.560 435.259, 266.480 436.043, 271.645 438.031 C 282.769 442.312, 314.392 441.835, 322.121 437.270 C 327.787 433.922, 328.599 426.891, 323.932 421.575 C 318.904 415.849, 310.968 412.665, 301.500 412.576 C 297.100 412.534, 291.813 412.858, 289.750 413.295 C 287.643 413.742, 286 413.703, 286 413.206 C 286 411.611, 291.358 409.830, 299.508 408.717 L 307.515 407.623 306.817 397.061 C 305.886 382.988, 305.002 375.975, 304.178 376.114 C 303.805 376.177, 300.626 377.310, 297.113 378.633 M 186.990 378.643 C 186.985 379.114, 186.318 385.350, 185.510 392.500 C 184.701 399.650, 184.030 406.234, 184.020 407.131 C 184.003 408.488, 185.553 408.843, 193.250 409.247 C 202.891 409.754, 210.835 411.858, 215.018 415.013 C 218.804 417.870, 216.851 418.274, 211.405 415.762 C 207.139 413.795, 204.871 413.500, 194 413.500 C 179.940 413.500, 176.094 414.765, 168.759 421.800 C 161.813 428.462, 162.631 435.606, 170.755 439.239 C 174.988 441.132, 177.390 441.366, 193 441.412 C 206.962 441.453, 211.661 441.108, 216.246 439.705 C 223.293 437.548, 228.360 433.266, 230.447 427.703 C 231.565 424.721, 240 385.653, 240 383.454 C 240 383.350, 231.787 383.014, 221.750 382.705 C 205.567 382.208, 194.637 380.808, 188.750 378.478 C 187.787 378.098, 186.996 378.172, 186.990 378.643" stroke="none" fill="#321e45" fill-rule="evenodd"/><path d="M 260.241 72.572 C 256.799 73.326, 251.067 75.110, 247.503 76.536 C 240.827 79.207, 231.662 83.996, 232.199 84.533 C 232.366 84.699, 234.977 84.121, 238.001 83.246 C 246.214 80.872, 273.750 80.912, 285 83.316 C 311.257 88.925, 333.728 100.389, 349.250 116.094 C 353.512 120.407, 357 123.710, 357 123.435 C 357 122.027, 351.236 111.760, 347.440 106.405 C 342.097 98.867, 330.106 87.607, 322.694 83.167 C 314.903 78.501, 304.289 74.347, 295.534 72.539 C 286.462 70.665, 268.870 70.682, 260.241 72.572 M 252.500 85.657 C 243.235 86.528, 232.912 89.437, 224.153 93.647 C 219.012 96.118, 215.024 98.357, 215.290 98.623 C 215.556 98.890, 217.288 98.176, 219.137 97.038 C 230.723 89.908, 254.050 87.115, 274.068 90.463 C 313.012 96.975, 346.825 116.500, 358.528 139.234 C 360.691 143.436, 362.638 146.695, 362.856 146.478 C 363.073 146.260, 361.334 142.211, 358.990 137.480 C 347.356 113.994, 318.362 94.853, 284.188 88.098 C 274.211 86.125, 259.543 84.996, 252.500 85.657 M 341 91.500 C 342.866 93.425, 344.617 95, 344.892 95 C 345.167 95, 343.866 93.425, 342 91.500 C 340.134 89.575, 338.383 88, 338.108 88 C 337.833 88, 339.134 89.575, 341 91.500 M 194.325 101.459 C 190.032 103.327, 188.925 105.276, 182.979 121.447 C 179.080 132.052, 177.998 136.176, 178.464 138.658 C 179.100 142.051, 184.189 148, 186.454 148 C 187.279 148, 188.567 144.440, 189.981 138.250 C 192.658 126.527, 196.795 116.175, 202.048 108.047 C 205.711 102.380, 205.825 101.977, 204.033 101.017 C 201.468 99.645, 198.149 99.796, 194.325 101.459 M 294.500 111.519 C 308.173 122.071, 317.583 132.238, 323.768 143.140 C 329.718 153.629, 332.557 167.090, 333.861 191 L 334.543 203.500 339.264 193.968 C 351.066 170.145, 350.692 151.956, 338.109 137.812 C 333.041 132.115, 323.666 124.645, 315.261 119.607 C 308.760 115.711, 290.932 108.766, 294.500 111.519 M 116.944 121.105 C 115.446 123.904, 116.500 129.067, 119.976 135.953 C 122.498 140.949, 123.251 141.652, 127.215 142.712 C 132.520 144.131, 142.411 151.194, 146.658 156.597 C 153.839 165.733, 154.713 171.612, 150.250 180.765 C 146.941 187.550, 139.042 195.918, 133.068 198.965 L 128.713 201.187 143.034 215.534 C 158.978 231.507, 157.034 230.735, 166 224.650 C 172.709 220.096, 180.700 212.259, 185.544 205.481 C 192.113 196.290, 192.091 195.685, 184.895 187.500 C 175.561 176.884, 167 165.068, 167 162.802 C 167 161.688, 168.611 156.476, 170.580 151.219 C 173.240 144.117, 173.999 140.807, 173.534 138.331 C 172.527 132.961, 169.196 133.803, 161 141.500 C 157.194 145.075, 153.450 148, 152.681 148 C 151.912 148, 147.580 143.476, 143.054 137.946 C 129.794 121.744, 119.987 115.419, 116.944 121.105 M 216.441 124.494 C 210.207 131.104, 210.694 144.968, 217.304 149.087 C 223.684 153.061, 230.711 148.542, 233.002 138.990 C 236.302 125.236, 225.038 115.378, 216.441 124.494 M 117.564 153.313 C 103.616 171.916, 102.788 179.829, 113.670 190.538 C 116.735 193.555, 120.333 196.297, 121.665 196.631 C 128.494 198.345, 141.045 188.739, 146.473 177.644 C 149.032 172.414, 149.180 171.542, 148.109 167.968 C 146.802 163.607, 137.836 153.298, 132.460 149.975 C 130.596 148.823, 127.694 147.486, 126.012 147.003 C 123.060 146.157, 122.764 146.377, 117.564 153.313 M 186.951 157.276 C 187.438 161.396, 187.459 161.417, 187.798 158.123 C 187.989 156.265, 187.765 154.365, 187.299 153.899 C 186.833 153.433, 186.677 154.953, 186.951 157.276 M 223.195 164.033 C 220.621 166.431, 220.347 170.622, 222.557 173.777 C 225.705 178.273, 232 175.330, 232 169.362 C 232 163.549, 226.977 160.509, 223.195 164.033 M 367.095 170.313 C 365.466 180.408, 360.985 192.769, 355.585 202.062 C 353.063 206.403, 351 210.169, 351 210.432 C 351 210.694, 352.582 211.206, 354.517 211.569 C 358.575 212.331, 362.900 210.833, 365.774 207.670 C 368.686 204.466, 378 179.670, 378 175.123 C 378 170.769, 375.368 166.759, 371.042 164.522 L 368.261 163.084 367.095 170.313 M 191.530 204.951 C 186.873 212.617, 177.441 222.233, 168.247 228.691 L 161.137 233.684 172.818 244.247 C 179.243 250.057, 187.650 257.369, 191.500 260.496 C 201.919 268.959, 201.646 268.623, 199.784 270.719 C 198.729 271.906, 198.084 274.982, 197.851 279.942 L 197.500 287.384 202 288.765 C 204.475 289.524, 211.338 290.402, 217.250 290.715 L 228 291.283 228 287.092 C 228 281.098, 230.386 277.156, 235.321 274.994 C 238.819 273.462, 243.738 273.028, 265.500 272.332 C 279.800 271.874, 293.249 271.628, 295.386 271.783 L 299.273 272.067 298.630 268.283 C 297.153 259.583, 296.715 250, 297.794 250 C 299.468 250, 299.748 250.836, 302.351 263.590 C 303.688 270.140, 305.321 276.667, 305.980 278.094 C 307.149 280.623, 307.370 280.676, 314.839 280.218 C 319.053 279.959, 322.657 279.610, 322.848 279.442 C 323.278 279.065, 313.523 262.388, 306.395 251.313 L 301.126 243.126 297.313 244.280 C 291.052 246.175, 264.684 245.816, 257 243.732 C 235.295 237.844, 222.683 229.306, 202.275 206.684 L 195.225 198.869 191.530 204.951 M 212.820 210.714 C 222.191 222.714, 238.818 233.377, 255.702 238.214 C 265.402 240.993, 287.778 241.421, 297.500 239.015 L 303.500 237.529 286 236.887 C 266.176 236.158, 258.693 234.573, 243.281 227.838 C 234.794 224.129, 221.518 215.978, 213.015 209.255 L 209.530 206.500 212.820 210.714 M 341.946 219.750 L 338.500 223.500 342.250 220.054 C 345.740 216.846, 346.460 216, 345.696 216 C 345.529 216, 343.842 217.688, 341.946 219.750 M 168.605 248.830 C 166.480 252.269, 161.876 288.209, 163.369 289.702 C 163.753 290.087, 168.765 290.886, 174.506 291.479 L 184.944 292.556 187.241 289.938 C 188.505 288.499, 190.060 287.136, 190.699 286.910 C 191.355 286.678, 192.287 282.593, 192.845 277.500 L 193.830 268.500 190.175 265.500 C 188.164 263.850, 183.428 259.800, 179.650 256.500 C 170.568 248.567, 169.308 247.692, 168.605 248.830 M 264.660 276.922 C 250.841 277.499, 250.816 277.504, 248.263 280.477 L 245.705 283.454 246.373 300.433 C 247.302 324.070, 247.699 324.518, 266.713 323.381 L 278.127 322.699 277.962 319.599 C 277.351 308.120, 277.836 306.005, 282.033 301.850 L 286.066 297.857 285.783 287.179 L 285.500 276.500 282 276.422 C 280.075 276.379, 272.272 276.604, 264.660 276.922 M 289.392 285.843 C 290.164 297.059, 289.650 299.035, 284.610 304.200 C 281.096 307.802, 281 308.106, 281 315.599 L 281 323.297 289.613 322.689 C 304.370 321.648, 305.397 319.846, 304.196 297.092 L 303.386 281.734 300.177 278.867 C 297.743 276.692, 295.972 276, 292.841 276 L 288.714 276 289.392 285.843 M 234.923 280.923 C 231.267 284.579, 230.879 289.510, 234.166 290.553 C 235.357 290.931, 237.495 292.515, 238.916 294.074 L 241.500 296.908 241.166 290.476 C 240.941 286.156, 241.326 283.052, 242.339 281.022 L 243.847 278 240.846 278 C 238.864 278, 236.855 278.991, 234.923 280.923 M 315 284.443 C 315 284.829, 316.120 287.055, 317.489 289.391 C 318.858 291.728, 320.334 296.308, 320.768 299.570 C 321.658 306.256, 321.214 316, 320.019 316 C 319.585 316, 318.915 313.478, 318.530 310.395 C 317.615 303.066, 315.300 295.304, 312.823 291.250 C 309.116 285.184, 308.477 286.909, 308.804 302.090 C 309.107 316.133, 309.097 316.204, 306.040 322.077 C 302.997 327.924, 302.988 327.988, 304.924 329.924 C 306.696 331.696, 306.721 331.918, 305.189 332.323 C 304.260 332.568, 304.881 332.820, 306.568 332.884 C 311.216 333.060, 319.193 330.367, 323.701 327.101 C 326.139 325.336, 328.770 322.095, 330.365 318.895 C 334.066 311.468, 333.944 304.383, 329.934 293.986 C 328.248 289.614, 326.535 285.831, 326.127 285.578 C 324.755 284.730, 315 283.735, 315 284.443 M 253.353 290.867 C 247.060 294.823, 246.681 305.244, 252.659 309.946 C 255.672 312.316, 263.002 312.715, 267 310.727 C 273.030 307.729, 274.429 297.935, 269.625 292.350 C 266.494 288.710, 258.013 287.937, 253.353 290.867 M 190.520 292.978 C 188.255 295.481, 188.975 302.777, 191.684 304.759 C 196.271 308.116, 204.344 309.500, 219.331 309.500 C 235.946 309.500, 237 309.067, 237 302.243 C 237 295.289, 236.406 295, 222.125 295 C 212.593 295, 207.321 294.489, 201.500 293 C 191.996 290.569, 192.698 290.571, 190.520 292.978 M 260.260 294.250 C 259.719 294.938, 259.002 296.649, 258.668 298.054 C 257.987 300.917, 260.677 304, 263.856 304 C 265.921 304, 269.678 300.345, 268.661 299.327 C 268.297 298.964, 268 299.192, 268 299.833 C 268 300.475, 267.560 301, 267.021 301 C 266.423 301, 266.480 300.040, 267.168 298.530 C 268.029 296.641, 267.995 295.699, 267.025 294.530 C 265.492 292.683, 261.621 292.523, 260.260 294.250 M 161.207 305.122 C 161.711 316.927, 163.619 322.185, 168.068 324.028 C 173.170 326.141, 176.902 322.083, 179.588 311.500 L 180.857 306.500 180.295 313 C 179.986 316.575, 179.106 320.738, 178.341 322.250 C 176.853 325.189, 177.699 325.767, 180.945 324.029 C 185.010 321.854, 187.137 309.908, 185.129 300.540 C 184.397 297.125, 182.678 296.577, 169.132 295.444 L 160.764 294.744 161.207 305.122 M 240.156 308.685 C 239.322 310.659, 237.706 312.255, 235.906 312.883 C 232.236 314.162, 232.131 316.814, 235.589 320.923 C 237.558 323.263, 239.003 324, 241.624 324 C 244.894 324, 245.008 323.885, 243.847 321.750 C 243.174 320.512, 242.370 316.350, 242.061 312.500 C 241.504 305.550, 241.490 305.523, 240.156 308.685 M 194.524 313.144 C 193.922 314.792, 188 367.428, 188 371.131 C 188 373.435, 188.592 373.913, 192.750 374.967 C 202.298 377.387, 208.825 378.020, 224.391 378.036 C 233.131 378.045, 240.431 377.902, 240.614 377.720 C 240.796 377.537, 241.638 374.038, 242.483 369.944 C 246.229 351.810, 249.267 340.031, 250.638 338.334 C 251.972 336.683, 252.078 337.222, 251.694 343.740 L 251.268 350.981 255.384 350.402 C 270.396 348.290, 283.698 342.433, 291.737 334.393 C 297.422 328.709, 298.315 326.659, 294.750 327.480 C 293.512 327.765, 279.823 328.111, 264.328 328.249 L 236.156 328.500 233.035 325.522 C 231.215 323.785, 229.462 320.748, 228.829 318.236 L 227.745 313.930 222.122 314.547 C 216.954 315.114, 203.726 313.973, 197.581 312.431 C 195.863 312, 194.856 312.234, 194.524 313.144 M 185.159 326.688 C 182.184 329.470, 175.048 331.026, 170.242 329.942 C 168.215 329.485, 166.469 329.198, 166.363 329.305 C 165.422 330.252, 169.660 336.466, 172.797 338.738 C 176.628 341.513, 184.576 344.757, 185.436 343.897 C 186.045 343.289, 188.251 326.202, 187.841 325.273 C 187.653 324.848, 186.447 325.485, 185.159 326.688 M 294.946 338.570 C 287.947 345.821, 275.279 351.949, 262.319 354.353 C 258.919 354.984, 256.049 355.841, 255.941 356.258 C 255.832 356.675, 256.064 361.963, 256.456 368.008 C 257.056 377.268, 257.431 379.012, 258.834 379.073 C 271.082 379.611, 284.196 378.110, 294.175 375.028 C 304.660 371.789, 304.557 371.957, 303.164 360.384 C 301.258 344.540, 299.702 335, 299.023 335 C 298.676 335, 296.842 336.606, 294.946 338.570 M 297.113 378.633 C 288.781 381.770, 275.747 384, 265.740 384 L 257.742 384 258.449 394.250 C 259.669 411.947, 261.833 426.833, 263.847 431.388 C 265.560 435.259, 266.480 436.043, 271.645 438.031 C 282.769 442.312, 314.392 441.835, 322.121 437.270 C 327.787 433.922, 328.599 426.891, 323.932 421.575 C 318.904 415.849, 310.968 412.665, 301.500 412.576 C 297.100 412.534, 291.813 412.858, 289.750 413.295 C 287.643 413.742, 286 413.703, 286 413.206 C 286 411.611, 291.358 409.830, 299.508 408.717 L 307.515 407.623 306.817 397.061 C 305.886 382.988, 305.002 375.975, 304.178 376.114 C 303.805 376.177, 300.626 377.310, 297.113 378.633 M 186.990 378.643 C 186.985 379.114, 186.318 385.350, 185.510 392.500 C 184.701 399.650, 184.030 406.234, 184.020 407.131 C 184.003 408.488, 185.553 408.843, 193.250 409.247 C 202.891 409.754, 210.835 411.858, 215.018 415.013 C 218.804 417.870, 216.851 418.274, 211.405 415.762 C 207.139 413.795, 204.871 413.500, 194 413.500 C 179.940 413.500, 176.094 414.765, 168.759 421.800 C 161.813 428.462, 162.631 435.606, 170.755 439.239 C 174.988 441.132, 177.390 441.366, 193 441.412 C 206.962 441.453, 211.661 441.108, 216.246 439.705 C 223.293 437.548, 228.360 433.266, 230.447 427.703 C 231.565 424.721, 240 385.653, 240 383.454 C 240 383.350, 231.787 383.014, 221.750 382.705 C 205.567 382.208, 194.637 380.808, 188.750 378.478 C 187.787 378.098, 186.996 378.172, 186.990 378.643" stroke="none" fill="#e8e4ea" fill-rule="evenodd"/></svg>